<?xml version="1.0" encoding="utf-8"?>
<!-- Generator: Adobe Illustrator 26.0.1, SVG Export Plug-In . SVG Version: 6.00 Build 0)  -->
<svg version="1.1" id="b534cf89-10ef-437f-8b56-19e14fb99407"
	 xmlns="http://www.w3.org/2000/svg" xmlns:xlink="http://www.w3.org/1999/xlink" x="0px" y="0px" viewBox="0 0 98 98"
	 style="enable-background:new 0 0 98 98;" xml:space="preserve">
<style type="text/css">
	.st0{fill:#A855F7;}
	.st1{fill:#E0CAFF;}
	.st2{filter:url(#Adobe_OpacityMaskFilter);}
	.st3{fill:url(#SVGID_1_);}
	.st4{mask:url(#a5c314ad-2d7a-4e8f-a381-40f7daea00eb_00000121996440829213634410000011290246706883370398_);}
	.st5{opacity:0.1;}
	.st6{fill:none;stroke:#111827;stroke-width:2;}
</style>
<g>
	<path class="st0" d="M35.7,30.6h27c2.7,0,4.9,2.2,4.9,4.9v27c0,2.7-2.2,4.9-4.9,4.9h-27c-2.7,0-4.9-2.2-4.9-4.9V35.4
		C31,32.8,33.1,30.6,35.7,30.6"/>
	<path class="st1" d="M53.1,38.8v-1.2c0-0.8-0.7-1.6-1.6-1.6h-3.7c-0.8,0-1.6,0.7-1.6,1.6v1.2c0,0.1,0.1,0.2,0.3,0.2
		c1-0.3,2.2-0.4,3.2-0.4c1,0,2.1,0.1,3.1,0.4C53,39,53.1,38.9,53.1,38.8 M43,40.5l-0.6-0.6c-0.6-0.6-1.7-0.6-2.3,0l0,0l-0.7,0.7
		c-0.6,0.6-0.6,1.7,0,2.3l0,0l0.6,0.6c0.1,0.1,0.2,0.1,0.3,0c0.4-0.5,0.7-0.9,1.2-1.4c0.4-0.4,0.9-0.8,1.4-1.2
		C43,40.7,43,40.6,43,40.5 M49.7,44.4v5.5c0,0.2,0.2,0.3,0.3,0.2l4.9-2.5c0.1-0.1,0.1-0.2,0.1-0.3c-1-1.8-2.9-3-5-3
		C49.8,44.2,49.7,44.3,49.7,44.4 M49.7,57.5c-4,0-7.3-3.3-7.3-7.3s3.3-7.3,7.3-7.3s7.3,3.3,7.3,7.3S53.7,57.5,49.7,57.5 M49.7,39.9
		c-5.7,0-10.3,4.7-10.3,10.3S44,60.5,49.7,60.5S60,55.9,60,50.2S55.5,39.9,49.7,39.9"/>
</g>
<defs>
	<filter id="Adobe_OpacityMaskFilter" filterUnits="userSpaceOnUse" x="0.2" y="0.2" width="98" height="98">
		<feColorMatrix  type="matrix" values="1 0 0 0 0  0 1 0 0 0  0 0 1 0 0  0 0 0 1 0"/>
	</filter>
</defs>
<mask maskUnits="userSpaceOnUse" x="0.2" y="0.2" width="98" height="98" id="a5c314ad-2d7a-4e8f-a381-40f7daea00eb_00000121996440829213634410000011290246706883370398_">
	<g transform="translate(-7.71 0.82)" class="st2">
		<g id="a4c51c4b-d883-47bd-8f5f-04cdeba819f8_00000180330466627485451990000010949586498949250189_">
			
				<radialGradient id="SVGID_1_" cx="-1791.0862" cy="-24.6925" r="1" gradientTransform="matrix(0 69 -72.92 0 -1744.1166 123632.0078)" gradientUnits="userSpaceOnUse">
				<stop  offset="0.23" style="stop-color:#C4C4C4"/>
				<stop  offset="0.72" style="stop-color:#C4C4C4;stop-opacity:0"/>
			</radialGradient>
			<rect x="4.9" y="3.3" class="st3" width="104" height="88"/>
		</g>
	</g>
</mask>
<g class="st4">
	<g class="st5">
		<circle class="st6" cx="49.2" cy="49.2" r="40"/>
	</g>
	<g class="st5">
		<circle class="st6" cx="49.2" cy="49.2" r="48"/>
	</g>
	<g class="st5">
		<circle class="st6" cx="49.2" cy="49.2" r="32"/>
	</g>
	<g class="st5">
		<circle class="st6" cx="49.2" cy="49.2" r="24"/>
	</g>
	<g class="st5">
		<circle class="st6" cx="49.2" cy="49.2" r="16"/>
	</g>
</g>
</svg>
