<?xml version="1.0" encoding="utf-8"?>
<!-- Generator: Adobe Illustrator 26.0.1, SVG Export Plug-In . SVG Version: 6.00 Build 0)  -->
<svg version="1.1" id="b534cf89-10ef-437f-8b56-19e14fb99407"
	 xmlns="http://www.w3.org/2000/svg" xmlns:xlink="http://www.w3.org/1999/xlink" x="0px" y="0px" viewBox="0 0 98 98"
	 style="enable-background:new 0 0 98 98;" xml:space="preserve">
<style type="text/css">
	.st0{filter:url(#Adobe_OpacityMaskFilter);}
	.st1{fill:url(#SVGID_1_);}
	.st2{mask:url(#a5c314ad-2d7a-4e8f-a381-40f7daea00eb_00000173852766609694563970000002611220881832770711_);}
	.st3{opacity:0.1;}
	.st4{fill:none;stroke:#111827;stroke-width:2;}
	.st5{fill:#A855F7;}
	.st6{enable-background:new    ;}
	.st7{fill-rule:evenodd;clip-rule:evenodd;fill:#CCABFF;}
</style>
<defs>
	<filter id="Adobe_OpacityMaskFilter" filterUnits="userSpaceOnUse" x="0" y="0" width="98" height="98">
		<feColorMatrix  type="matrix" values="1 0 0 0 0  0 1 0 0 0  0 0 1 0 0  0 0 0 1 0"/>
	</filter>
</defs>
<mask maskUnits="userSpaceOnUse" x="0" y="0" width="98" height="98" id="a5c314ad-2d7a-4e8f-a381-40f7daea00eb_00000173852766609694563970000002611220881832770711_">
	<g transform="translate(-7.71 0.82)" class="st0">
		<g id="a4c51c4b-d883-47bd-8f5f-04cdeba819f8_00000177452021298935725730000011402641466768603569_">
			
				<radialGradient id="SVGID_1_" cx="-1791.0886" cy="-24.6894" r="1" gradientTransform="matrix(0 69 -72.92 0 -1744.1166 123632.0078)" gradientUnits="userSpaceOnUse">
				<stop  offset="0.23" style="stop-color:#C4C4C4"/>
				<stop  offset="0.72" style="stop-color:#C4C4C4;stop-opacity:0"/>
			</radialGradient>
			<rect x="4.7" y="3.2" class="st1" width="104" height="88"/>
		</g>
	</g>
</mask>
<g class="st2">
	<g class="st3">
		<circle class="st4" cx="49" cy="49" r="40"/>
	</g>
	<g class="st3">
		<circle class="st4" cx="49" cy="49" r="48"/>
	</g>
	<g class="st3">
		<circle class="st4" cx="49" cy="49" r="32"/>
	</g>
	<g class="st3">
		<circle class="st4" cx="49" cy="49" r="24"/>
	</g>
	<g class="st3">
		<circle class="st4" cx="49" cy="49" r="16"/>
	</g>
</g>
<g>
	<path class="st5" d="M37.6,45.8c0,0.7,0.1,1.2,0.2,1.6c0.1,0.4,0.3,0.8,0.6,1.3c0.1,0.1,0.1,0.3,0.1,0.4c0,0.2-0.1,0.4-0.3,0.5
		L37,50.4c-0.2,0.1-0.3,0.2-0.5,0.2s-0.4-0.1-0.5-0.3c-0.3-0.3-0.5-0.6-0.6-0.8c-0.2-0.3-0.4-0.6-0.6-1.1c-1.4,1.7-3.2,2.5-5.3,2.5
		c-1.5,0-2.7-0.4-3.6-1.3c-0.9-0.9-1.3-2-1.3-3.5s0.5-2.8,1.6-3.7s2.6-1.4,4.4-1.4c0.6,0,1.2,0.1,1.9,0.1c0.7,0.1,1.3,0.2,2.1,0.4
		v-1.3c0-1.4-0.3-2.3-0.8-2.9c-0.6-0.6-1.5-0.8-2.9-0.8c-0.6,0-1.3,0.1-1.9,0.2c-0.7,0.2-1.3,0.4-1.9,0.6c-0.3,0.1-0.5,0.2-0.6,0.2
		s-0.2,0.1-0.3,0.1c-0.3,0-0.4-0.2-0.4-0.6v-0.9c0-0.3,0-0.5,0.1-0.6s0.3-0.3,0.5-0.4c0.6-0.3,1.4-0.6,2.3-0.8s1.8-0.3,2.8-0.3
		c2.1,0,3.7,0.5,4.7,1.5s1.5,2.4,1.5,4.4L37.6,45.8L37.6,45.8z M30.3,48.6c0.6,0,1.2-0.1,1.9-0.3c0.6-0.2,1.2-0.6,1.7-1.2
		c0.3-0.3,0.5-0.7,0.6-1.2s0.2-1,0.2-1.6v-0.8c-0.5-0.1-1.1-0.2-1.7-0.3c-0.6-0.1-1.1-0.1-1.7-0.1c-1.2,0-2.1,0.2-2.7,0.7
		s-0.9,1.2-0.9,2.1c0,0.8,0.2,1.5,0.7,1.9C28.8,48.3,29.4,48.6,30.3,48.6L30.3,48.6z M44.7,50.5c-0.3,0-0.5-0.1-0.7-0.2
		c-0.1-0.1-0.3-0.4-0.4-0.7l-4.2-13.9c-0.1-0.4-0.2-0.6-0.2-0.7c0-0.3,0.1-0.4,0.4-0.4h1.8c0.3,0,0.6,0.1,0.7,0.2
		c0.1,0.1,0.3,0.4,0.4,0.7l3,11.9l2.8-11.9c0.1-0.4,0.2-0.6,0.3-0.7c0.1-0.1,0.4-0.2,0.7-0.2h1.4c0.3,0,0.6,0.1,0.7,0.2
		c0.1,0.1,0.3,0.4,0.3,0.7l2.8,12.1l3.1-12.1c0.1-0.4,0.2-0.6,0.4-0.7c0.1-0.1,0.4-0.2,0.7-0.2h1.7c0.3,0,0.4,0.1,0.4,0.4
		c0,0.1,0,0.2,0,0.3s-0.1,0.3-0.1,0.4l-4.3,13.9c-0.1,0.4-0.2,0.6-0.4,0.7c-0.1,0.1-0.4,0.2-0.7,0.2h-1.5c-0.3,0-0.6-0.1-0.7-0.2
		c-0.1-0.1-0.3-0.4-0.3-0.7L50.1,38l-2.8,11.6c-0.1,0.4-0.2,0.6-0.3,0.7c-0.1,0.1-0.4,0.2-0.7,0.2H44.7z M67.8,51
		c-0.9,0-1.9-0.1-2.8-0.3s-1.6-0.4-2.1-0.7c-0.3-0.2-0.5-0.3-0.6-0.5s-0.1-0.3-0.1-0.5v-1c0-0.4,0.1-0.6,0.4-0.6
		c0.1,0,0.2,0,0.3,0.1c0.1,0,0.3,0.1,0.4,0.2c0.6,0.3,1.3,0.5,2,0.6s1.4,0.2,2.1,0.2c1.1,0,2-0.2,2.6-0.6c0.6-0.4,0.9-1,0.9-1.7
		c0-0.5-0.2-0.9-0.5-1.3s-0.9-0.6-1.8-0.9L66,43.2c-1.3-0.4-2.3-1-2.9-1.8c-0.6-0.8-0.9-1.7-0.9-2.6c0-0.8,0.2-1.4,0.5-2
		s0.8-1.1,1.3-1.5c0.5-0.4,1.2-0.7,1.9-0.9s1.5-0.3,2.3-0.3c0.4,0,0.8,0,1.2,0.1c0.4,0.1,0.8,0.1,1.2,0.2c0.4,0.1,0.7,0.2,1,0.3
		s0.6,0.2,0.8,0.3c0.3,0.1,0.4,0.3,0.5,0.4c0.1,0.1,0.2,0.3,0.2,0.6v0.8c0,0.4-0.1,0.6-0.4,0.6c-0.1,0-0.4-0.1-0.7-0.2
		c-1-0.5-2.2-0.7-3.5-0.7c-1,0-1.8,0.2-2.4,0.5s-0.8,0.9-0.8,1.6c0,0.5,0.2,0.9,0.5,1.3c0.4,0.3,1,0.7,2,1l2.6,0.8
		c1.3,0.4,2.2,1,2.8,1.7c0.6,0.7,0.8,1.6,0.8,2.5c0,0.8-0.2,1.5-0.5,2.1s-0.8,1.2-1.3,1.6c-0.6,0.4-1.2,0.8-2,1
		C69.6,50.9,68.7,51,67.8,51L67.8,51z"/>
	<g class="st6">
		<path class="st7" d="M71.2,59.7c-5.9,4.4-14.5,6.7-21.9,6.7c-10.4,0-19.7-3.8-26.8-10.2c-0.6-0.5-0.1-1.2,0.6-0.8
			c7.6,4.4,17,7.1,26.8,7.1c6.6,0,13.8-1.4,20.4-4.2C71.3,57.9,72.2,59,71.2,59.7z"/>
		<path class="st7" d="M73.7,56.9c-0.8-1-5-0.5-6.9-0.2c-0.6,0.1-0.7-0.4-0.1-0.8c3.4-2.4,8.9-1.7,9.6-0.9c0.6,0.8-0.2,6.4-3.3,9
			c-0.5,0.4-1,0.2-0.7-0.3C72.8,61.9,74.4,57.9,73.7,56.9z"/>
	</g>
</g>
</svg>
