<?xml version="1.0" encoding="utf-8"?>
<!-- Generator: Adobe Illustrator 26.0.1, SVG Export Plug-In . SVG Version: 6.00 Build 0)  -->
<svg version="1.1" id="b534cf89-10ef-437f-8b56-19e14fb99407"
	 xmlns="http://www.w3.org/2000/svg" xmlns:xlink="http://www.w3.org/1999/xlink" x="0px" y="0px" viewBox="0 0 98 98"
	 style="enable-background:new 0 0 98 98;" xml:space="preserve">
<style type="text/css">
	.st0{fill-rule:evenodd;clip-rule:evenodd;fill:#C38FFF;}
	.st1{fill:none;}
	.st2{fill-rule:evenodd;clip-rule:evenodd;fill:#A855F7;}
	.st3{filter:url(#Adobe_OpacityMaskFilter);}
	.st4{fill:url(#SVGID_1_);}
	.st5{mask:url(#a5c314ad-2d7a-4e8f-a381-40f7daea00eb_00000137843530448754657900000006179780260378250377_);}
	.st6{opacity:0.1;}
	.st7{fill:none;stroke:#111827;stroke-width:2;}
</style>
<path class="st0" d="M55.7,43.8l5.6-5.2l3.4-5.5c-2.1-3.8-5.7-6.6-10-7.9l-6.5,4.4L44.4,37c1.2-1.4,3-2.2,5-2.2c3.7,0,6.7,3,6.7,6.7
	C56.1,42.3,55.9,43.1,55.7,43.8L55.7,43.8z M44.3,37.2L44.3,37.2L44.3,37.2L44.3,37.2z"/>
<path class="st1" d="M49.4,24.3c9.7,0,17.5,7.5,17.5,16.8c0,3.6-1.2,7-3.3,9.8h0c0,0-9.2,12.8-10.7,15.8c-1.4,2.9-1.7,5.5-2.4,6.4
	c-0.6,0.9-2,0.5-2.4-0.9c-0.3-1.4-1.5-4.2-4-8.5c-2.6-4.3-9-12.8-9-12.8h0c-2.1-2.8-3.3-6.2-3.3-9.9C31.9,31.9,39.7,24.3,49.4,24.3z
	 M49.4,34.8c3.7,0,6.7,3,6.7,6.7c0,3.7-3,6.7-6.7,6.7c-3.7,0-6.7-3-6.7-6.7C42.7,37.8,45.7,34.8,49.4,34.8z"/>
<path class="st2" d="M41.8,60.1l10.9-12.9c1.3-0.8,2.4-2,2.9-3.4l9.1-10.7c1.4,2.4,2.2,5.2,2.2,8.1c0,3.6-1.2,7-3.3,9.8h0
	c0,0-9.2,12.8-10.7,15.8c-1.4,2.9-1.7,5.5-2.4,6.4c-0.6,0.9-2,0.5-2.4-0.9c-0.3-1.4-1.5-4.2-4-8.5C43.6,62.8,42.8,61.5,41.8,60.1
	L41.8,60.1z"/>
<path class="st0" d="M34.1,49.4l10.1-12.2l0,0c-1,1.2-1.5,2.6-1.5,4.3c0,3.7,3,6.7,6.7,6.7c1.2,0,2.4-0.3,3.3-0.9L41.8,60.1
	c-2.9-4.2-6.6-9.1-6.6-9.1h0C34.8,50.5,34.5,50,34.1,49.4L34.1,49.4z"/>
<path class="st2" d="M35.8,30.6l8.6,6.4L34.1,49.4c-1.4-2.4-2.2-4.7-2.2-8.2S33.4,33.5,35.8,30.6L35.8,30.6z"/>
<path class="st2" d="M54.7,25.1l-10.4,12l-8.6-6.4c3.2-3.8,8.1-6.3,13.6-6.3C51.3,24.3,53,24.6,54.7,25.1z"/>
<defs>
	<filter id="Adobe_OpacityMaskFilter" filterUnits="userSpaceOnUse" x="0" y="0" width="98" height="98">
		<feColorMatrix  type="matrix" values="1 0 0 0 0  0 1 0 0 0  0 0 1 0 0  0 0 0 1 0"/>
	</filter>
</defs>
<mask maskUnits="userSpaceOnUse" x="0" y="0" width="98" height="98" id="a5c314ad-2d7a-4e8f-a381-40f7daea00eb_00000137843530448754657900000006179780260378250377_">
	<g transform="translate(-7.71 0.82)" class="st3">
		<g id="a4c51c4b-d883-47bd-8f5f-04cdeba819f8_00000147934209468165053990000015126333551393893302_">
			
				<radialGradient id="SVGID_1_" cx="-1791.0886" cy="-24.6894" r="1" gradientTransform="matrix(0 69 -72.92 0 -1744.1166 123632.0078)" gradientUnits="userSpaceOnUse">
				<stop  offset="0.23" style="stop-color:#C4C4C4"/>
				<stop  offset="0.72" style="stop-color:#C4C4C4;stop-opacity:0"/>
			</radialGradient>
			<rect x="4.7" y="3.2" class="st4" width="104" height="88"/>
		</g>
	</g>
</mask>
<g class="st5">
	<g class="st6">
		<circle class="st7" cx="49" cy="49" r="40"/>
	</g>
	<g class="st6">
		<circle class="st7" cx="49" cy="49" r="48"/>
	</g>
	<g class="st6">
		<circle class="st7" cx="49" cy="49" r="32"/>
	</g>
	<g class="st6">
		<circle class="st7" cx="49" cy="49" r="24"/>
	</g>
	<g class="st6">
		<circle class="st7" cx="49" cy="49" r="16"/>
	</g>
</g>
</svg>
