<?xml version="1.0" encoding="utf-8"?>
<!-- Generator: Adobe Illustrator 25.4.1, SVG Export Plug-In . SVG Version: 6.00 Build 0)  -->
<svg version="1.1" id="b534cf89-10ef-437f-8b56-19e14fb99407"
	 xmlns="http://www.w3.org/2000/svg" xmlns:xlink="http://www.w3.org/1999/xlink" x="0px" y="0px" viewBox="0 0 98 98"
	 style="enable-background:new 0 0 98 98;" xml:space="preserve">
<style type="text/css">
	.st0{filter:url(#Adobe_OpacityMaskFilter);}
	.st1{fill:url(#SVGID_1_);}
	.st2{mask:url(#a4b92181-312d-4aec-af16-effa76941414_00000147931788648717937630000011220505350915707564_);}
	.st3{opacity:0.1;}
	.st4{fill:none;stroke:#111827;stroke-width:2;}
	.st5{opacity:0.2;fill:#A855F7;}
	.st6{opacity:0.2;fill:#A855F7;enable-background:new    ;}
	.st7{fill:#A855F7;}
	.st8{opacity:0.405;fill:#A855F7;enable-background:new    ;}
	.st9{fill:#EEEEEF;}
</style>
<defs>
	<filter id="Adobe_OpacityMaskFilter" filterUnits="userSpaceOnUse" x="0" y="0" width="98" height="98">
		<feColorMatrix  type="matrix" values="1 0 0 0 0  0 1 0 0 0  0 0 1 0 0  0 0 0 1 0"/>
	</filter>
</defs>
<mask maskUnits="userSpaceOnUse" x="0" y="0" width="98" height="98" id="a4b92181-312d-4aec-af16-effa76941414_00000147931788648717937630000011220505350915707564_">
	<g transform="translate(-7.4 0.36)" class="st0">
		<g id="bd225d27-2e4b-4d39-80c0-8b00154deeb5_00000157266000609244830660000016163994787460589726_">
			
				<radialGradient id="SVGID_1_" cx="-1791.3878" cy="-24.2294" r="0.9995" gradientTransform="matrix(0 69 -72.92 0 -1710.5734 123653.3984)" gradientUnits="userSpaceOnUse">
				<stop  offset="0.23" style="stop-color:#C4C4C4"/>
				<stop  offset="0.72" style="stop-color:#C4C4C4;stop-opacity:0"/>
			</radialGradient>
			<rect x="4.4" y="3.6" class="st1" width="104" height="88"/>
		</g>
	</g>
</mask>
<g class="st2">
	<g class="st3">
		<circle class="st4" cx="49" cy="49" r="40"/>
	</g>
	<g class="st3">
		<circle class="st4" cx="49" cy="49" r="48"/>
	</g>
	<g class="st3">
		<circle class="st4" cx="49" cy="49" r="32"/>
	</g>
	<g class="st3">
		<circle class="st4" cx="49" cy="49" r="24"/>
	</g>
	<g class="st3">
		<circle class="st4" cx="49" cy="49" r="16"/>
	</g>
</g>
<g>
	<path class="st5" d="M49.8,23.7l1.4,2.6c0.3,0.5,0.6,0.9,1,1.3c1.1,1.1,2.2,2.3,3.2,3.6c2.3,3,4,6.4,5,10c0.7,2.2,1,4.5,1,6.8
		c0.2,6.6-2.3,13-7,17.7c-0.8,0.8-1.6,1.5-2.5,2.1c-0.5,0-0.7-0.4-0.9-0.7c-0.4-0.6-0.6-1.3-0.7-2c-0.2-0.8-0.3-1.7-0.2-2.5v-0.4
		C50.1,62,49.6,23.8,49.8,23.7L49.8,23.7z"/>
	<path class="st6" d="M49.8,23.6c-0.1-0.1-0.1,0-0.2,0c0,0.5-0.2,1.1-0.5,1.5c-0.4,0.5-0.8,0.9-1.2,1.3c-2.4,2.1-4.5,4.7-6,7.6
		c-2,3.8-3.1,8.1-3.4,12.4c0,3,0.4,5.9,1,8.8c1.4,4.2,3.8,8,7,11c0.8,0.7,1.6,1.5,2.5,2.1c0.3,0,0.3-0.2,0.3-0.4
		c0.1-0.4,0.2-0.7,0.2-1.1l0.5-4.2L49.8,23.6z"/>
</g>
<g>
	<path class="st7" d="M48.8,23.7l1.4,2.6c0.3,0.5,0.6,0.9,1,1.3c1.1,1.1,2.2,2.3,3.2,3.6c2.3,3,4,6.4,5,10c0.7,2.2,1,4.5,1,6.8
		c0.2,6.6-2.3,13-7,17.7c-0.8,0.8-1.6,1.5-2.5,2.1c-0.5,0-0.7-0.4-0.9-0.7c-0.4-0.6-0.6-1.3-0.7-2c-0.2-0.8-0.3-1.7-0.2-2.5v-0.4
		C49.1,62,48.6,23.8,48.8,23.7L48.8,23.7z"/>
	<path class="st8" d="M48.8,23.6c-0.1-0.1-0.1,0-0.2,0c0,0.5-0.2,1.1-0.5,1.5c-0.4,0.5-0.8,0.9-1.2,1.3c-2.4,2.1-4.5,4.7-6,7.6
		c-2,3.8-3.1,8.1-3.4,12.4c0,3,0.4,5.9,1,8.8c1.4,4.2,3.8,8,7,11c0.8,0.7,1.6,1.5,2.5,2.1c0.3,0,0.3-0.2,0.3-0.4
		c0.1-0.4,0.2-0.7,0.2-1.1l0.5-4.2L48.8,23.6z"/>
</g>
<path class="st9" d="M50.2,69.4c0.1-0.6,0.3-1.2,0.7-1.7c-0.3-0.2-0.6-0.4-0.8-0.7c-0.2-0.3-0.3-0.6-0.4-0.9
	c-0.3-1.2-0.5-2.4-0.6-3.6v-0.7c-0.1,0.1-0.2,1-0.2,1.2c-0.1,1.3-0.2,2.5-0.5,3.8c0,0.5-0.2,1-0.5,1.4c0,0.1,0,0.1,0,0.2
	c0.4,1.5,0.7,3,0.7,4.5v0.6c0,0.7,0,0.5,0.5,0.8c0.2,0.1,0.5,0.1,0.7,0.3c0.2,0,0.2-0.1,0.2-0.3l-0.1-0.9v-2.6
	C50.1,70.3,50.1,69.9,50.2,69.4L50.2,69.4z"/>
</svg>
