<?xml version="1.0" encoding="utf-8"?>
<!-- Generator: Adobe Illustrator 26.0.1, SVG Export Plug-In . SVG Version: 6.00 Build 0)  -->
<svg version="1.1" id="b534cf89-10ef-437f-8b56-19e14fb99407"
	 xmlns="http://www.w3.org/2000/svg" xmlns:xlink="http://www.w3.org/1999/xlink" x="0px" y="0px" viewBox="0 0 98 98"
	 style="enable-background:new 0 0 98 98;" xml:space="preserve">
<style type="text/css">
	.st0{fill:#A855F7;}
	.st1{filter:url(#Adobe_OpacityMaskFilter);}
	.st2{fill:url(#SVGID_1_);}
	.st3{mask:url(#a5c314ad-2d7a-4e8f-a381-40f7daea00eb_00000070119928922168609520000006257663681201789313_);}
	.st4{opacity:0.1;}
	.st5{fill:none;stroke:#111827;stroke-width:2;}
</style>
<path class="st0" d="M53.9,55.9l-12.3-2.6c-0.1,0.1-0.1,0.2-0.2,0.3L52.6,70l0.7-0.7l1.9-11.8C54.6,57.2,54.1,56.6,53.9,55.9
	L53.9,55.9z M49.4,39.9c-0.5,0.7-1.3,1.2-2.2,1.2c-0.1,0-0.3,0-0.4,0l-5.6,8.8l15-6.4c0-0.1,0-0.1,0-0.2c0-0.1,0-0.2,0-0.4
	L49.4,39.9L49.4,39.9z M49.8,38.3l7.2,3.1c0.2-0.2,0.5-0.3,0.8-0.4l1.2-7.4l-4.5-4.5l-5.1,8C49.7,37.4,49.8,37.8,49.8,38.3
	L49.8,38.3z M65,39.6L60.5,35l-1,6.1c0.3,0.1,0.5,0.3,0.7,0.5L65,39.6z M54.1,54.3c0.4-0.7,1-1.1,1.8-1.1l1.3-8.1
	C57.1,45,57,45,56.9,44.9l-15,6.5c0,0.2,0.1,0.3,0.1,0.5L54.1,54.3z M66.3,40.8L61,43.1l13,5.6l0,0L66.3,40.8L66.3,40.8z M56.9,57.5
	l-1.6,9.8l9.2-9.2l-6.6-1.4C57.6,57.1,57.2,57.4,56.9,57.5z M39,55c-0.3,0-0.7-0.1-0.9-0.2L35,59.6l-1.2-1.2l2.9-4.5
	c-0.1-0.1-0.1-0.2-0.2-0.3l-5.2,2.3L30,54.6l5.7-2.5L25.4,50L24,48.6l0.4-0.4l11.9,2.5c0.1-0.3,0.3-0.5,0.5-0.7L31,41.5l1.2-1.2
	l6.1,8.8C38.5,49,38.7,49,39,49s0.5,0,0.7,0.1l5.7-8.9c-0.5-0.5-0.7-1.1-0.7-1.8c0-0.2,0-0.4,0.1-0.6l-7.1-3l1.2-1.2l6.7,2.9
	c0.7-0.6,1.6-0.7,2.5-0.4l5.2-8.2L49,23.5l-25,25l25,25l2.5-2.5L40.2,54.7C39.8,54.9,39.4,55,39,55L39,55z M58.8,45.4l-1.3,8.3
	c0.5,0.4,0.8,0.9,0.8,1.5l7.5,1.6l6.9-6.9l-12.5-5.3C59.9,45,59.4,45.3,58.8,45.4L58.8,45.4z"/>
<defs>
	<filter id="Adobe_OpacityMaskFilter" filterUnits="userSpaceOnUse" x="0.2" y="0.2" width="98" height="98">
		<feColorMatrix  type="matrix" values="1 0 0 0 0  0 1 0 0 0  0 0 1 0 0  0 0 0 1 0"/>
	</filter>
</defs>
<mask maskUnits="userSpaceOnUse" x="0.2" y="0.2" width="98" height="98" id="a5c314ad-2d7a-4e8f-a381-40f7daea00eb_00000070119928922168609520000006257663681201789313_">
	<g transform="translate(-7.71 0.82)" class="st1">
		<g id="a4c51c4b-d883-47bd-8f5f-04cdeba819f8_00000019646273886903040980000007250267074355741114_">
			
				<radialGradient id="SVGID_1_" cx="-1791.0862" cy="-24.6925" r="1" gradientTransform="matrix(0 69 -72.92 0 -1744.1166 123632.0078)" gradientUnits="userSpaceOnUse">
				<stop  offset="0.23" style="stop-color:#C4C4C4"/>
				<stop  offset="0.72" style="stop-color:#C4C4C4;stop-opacity:0"/>
			</radialGradient>
			<rect x="4.9" y="3.3" class="st2" width="104" height="88"/>
		</g>
	</g>
</mask>
<g class="st3">
	<g class="st4">
		<circle class="st5" cx="49.2" cy="49.2" r="40"/>
	</g>
	<g class="st4">
		<circle class="st5" cx="49.2" cy="49.2" r="48"/>
	</g>
	<g class="st4">
		<circle class="st5" cx="49.2" cy="49.2" r="32"/>
	</g>
	<g class="st4">
		<circle class="st5" cx="49.2" cy="49.2" r="24"/>
	</g>
	<g class="st4">
		<circle class="st5" cx="49.2" cy="49.2" r="16"/>
	</g>
</g>
</svg>
