<?xml version="1.0" encoding="utf-8"?>
<!-- Generator: Adobe Illustrator 25.4.1, SVG Export Plug-In . SVG Version: 6.00 Build 0)  -->
<svg version="1.1" id="b342bdfa-1973-48b7-af8d-31b5fce90e2b"
	 xmlns="http://www.w3.org/2000/svg" xmlns:xlink="http://www.w3.org/1999/xlink" x="0px" y="0px" viewBox="0 0 98 98"
	 style="enable-background:new 0 0 98 98;" xml:space="preserve">
<style type="text/css">
	.st0{filter:url(#Adobe_OpacityMaskFilter);}
	.st1{fill:url(#SVGID_1_);}
	.st2{mask:url(#a86cf1b8-910a-47a6-8824-0421a96c3016_00000010287003518794330760000006859260771295286973_);}
	.st3{opacity:0.1;}
	.st4{fill:none;stroke:#111827;stroke-width:2;}
	.st5{opacity:0.2;}
	.st6{fill-rule:evenodd;clip-rule:evenodd;fill:#A855F7;}
	.st7{opacity:0.405;fill-rule:evenodd;clip-rule:evenodd;fill:#A855F7;enable-background:new    ;}
</style>
<defs>
	<filter id="Adobe_OpacityMaskFilter" filterUnits="userSpaceOnUse" x="0" y="0" width="98" height="98">
		<feColorMatrix  type="matrix" values="1 0 0 0 0  0 1 0 0 0  0 0 1 0 0  0 0 0 1 0"/>
	</filter>
</defs>
<mask maskUnits="userSpaceOnUse" x="0" y="0" width="98" height="98" id="a86cf1b8-910a-47a6-8824-0421a96c3016_00000010287003518794330760000006859260771295286973_">
	<g transform="translate(-8.07 0.93)" class="st0">
		<g id="e6dce0ce-5752-4081-af99-d4546d71543f_00000098201419702880061020000005394652729961825706_">
			
				<radialGradient id="SVGID_1_" cx="-1790.7285" cy="-24.8109" r="1.0011" gradientTransform="matrix(0 69 -72.92 0 -1752.1378 123607.1719)" gradientUnits="userSpaceOnUse">
				<stop  offset="0.23" style="stop-color:#C4C4C4"/>
				<stop  offset="0.72" style="stop-color:#C4C4C4;stop-opacity:0"/>
			</radialGradient>
			<rect x="5.1" y="3.1" class="st1" width="104" height="88"/>
		</g>
	</g>
</mask>
<g class="st2">
	<g class="st3">
		<circle class="st4" cx="49" cy="49" r="40"/>
	</g>
	<g class="st3">
		<circle class="st4" cx="49" cy="49" r="48"/>
	</g>
	<g class="st3">
		<circle class="st4" cx="49" cy="49" r="32"/>
	</g>
	<g class="st3">
		<circle class="st4" cx="49" cy="49" r="24"/>
	</g>
	<g class="st3">
		<circle class="st4" cx="49" cy="49" r="16"/>
	</g>
</g>
<g class="st5">
	<path class="st6" d="M51.2,58.7V43.1c0-0.6-0.4-1-1-1H34.6V26h31.6c0.6,0,1,0.4,1,1l0,0v31.7H51.2z"/>
	<path class="st7" d="M34.6,26v16.1H19.8c-0.3,0-0.5-0.2-0.5-0.5c0-0.1,0.1-0.3,0.1-0.4L34.6,26z M51.2,73.5V58.7h16.1L52,73.9
		c-0.2,0.2-0.5,0.2-0.7,0C51.2,73.8,51.2,73.6,51.2,73.5z M34.6,42.1h16.1c0.3,0,0.5,0.2,0.5,0.5c0,0,0,0,0,0v16.1H35.6
		c-0.6,0-1-0.4-1-1V42.1z"/>
</g>
<g>
	<path class="st6" d="M51.2,57.7V42.1c0-0.6-0.4-1-1-1H34.6V25h31.6c0.6,0,1,0.4,1,1l0,0v31.7H51.2z"/>
	<path class="st7" d="M34.6,25v16.1H19.8c-0.3,0-0.5-0.2-0.5-0.5c0-0.1,0.1-0.3,0.1-0.4L34.6,25z M51.2,72.5V57.7h16.1L52,72.9
		c-0.2,0.2-0.5,0.2-0.7,0C51.2,72.8,51.2,72.6,51.2,72.5z M34.6,41.1h16.1c0.3,0,0.5,0.2,0.5,0.5c0,0,0,0,0,0v16.1H35.6
		c-0.6,0-1-0.4-1-1V41.1z"/>
</g>
</svg>
