<svg id="a0a927e6-ace2-4a2a-884f-5b507666a715" data-name="Layer 1" xmlns="http://www.w3.org/2000/svg" xmlns:xlink="http://www.w3.org/1999/xlink" viewBox="0 0 98 98"><defs><radialGradient id="aeb17025-0c72-4743-a1a0-405e3899af94" cx="-895.9" cy="601.39" r="1" gradientTransform="matrix(0, 69, 72.92, 0, -43797.12, 61864)" gradientUnits="userSpaceOnUse"><stop offset="0.23" stop-color="#c4c4c4"/><stop offset="0.72" stop-color="#c4c4c4" stop-opacity="0"/></radialGradient><radialGradient id="b6142db3-44e3-4f2f-92cf-5c8a6b6103bf" cx="-895.89" cy="601.39" xlink:href="#aeb17025-0c72-4743-a1a0-405e3899af94"/><mask id="a5c314ad-2d7a-4e8f-a381-40f7daea00eb" x="-3" y="0" width="104" height="98" maskUnits="userSpaceOnUse"><g transform="translate(-7.71 0.82)"><g id="a4c51c4b-d883-47bd-8f5f-04cdeba819f8" data-name="mask0"><rect x="4.71" y="3.18" width="104" height="88" style="fill:url(#aeb17025-0c72-4743-a1a0-405e3899af94)"/></g></g></mask><mask id="f8afa32d-f195-458c-a6df-59e678cb7d6e" x="-3" y="4.25" width="104" height="88" maskUnits="userSpaceOnUse"><g transform="translate(-7.71 0.82)"><g id="b62fa5f8-4db5-4c30-83c6-d76adfb4eec9" data-name="mask0"><rect x="4.71" y="3.43" width="104" height="88" style="fill:url(#b6142db3-44e3-4f2f-92cf-5c8a6b6103bf)"/></g></g></mask></defs><g style="mask:url(#a5c314ad-2d7a-4e8f-a381-40f7daea00eb)"><g style="opacity:0.10000000149011612"><circle cx="49" cy="49" r="40" style="fill:none;stroke:#111827;stroke-width:2px"/></g><g style="opacity:0.10000000149011612"><circle cx="49" cy="49" r="48" style="fill:none;stroke:#111827;stroke-width:2px"/></g><g style="opacity:0.10000000149011612"><circle cx="49" cy="49" r="32" style="fill:none;stroke:#111827;stroke-width:2px"/></g><g style="opacity:0.10000000149011612"><circle cx="49" cy="49" r="24" style="fill:none;stroke:#111827;stroke-width:2px"/></g><g style="opacity:0.10000000149011612"><circle cx="49" cy="49" r="16" style="fill:none;stroke:#111827;stroke-width:2px"/></g></g><g style="mask:url(#f8afa32d-f195-458c-a6df-59e678cb7d6e)"><g style="opacity:0.10000000149011612"><circle cx="49" cy="49.25" r="16" style="fill:none;stroke:#111827;stroke-width:2px"/></g><g style="opacity:0.20000000298023224"><path d="M34.71,70.43h44l5.1-10.21a4,4,0,0,0-3.58-5.79H33.18a4,4,0,0,0-3.58,5.79Z" transform="translate(-7.71 0.82)" style="fill:#a855f7"/></g><rect x="21" y="27.25" width="56" height="40" rx="4" style="fill:#fff"/><rect x="20.5" y="26.75" width="57" height="41" rx="4.5" style="fill:none;stroke:#121826;stroke-opacity:0.07999999821186066"/></g><path d="M37,46.12c0-.5.41-.69,1.09-.69a7.11,7.11,0,0,1,3.15.82v-3a8.37,8.37,0,0,0-3.15-.59c-2.59,0-4.31,1.35-4.31,3.6,0,3.52,4.84,3,4.84,4.47,0,.59-.51.78-1.22.78a8,8,0,0,1-3.48-1v3a8.82,8.82,0,0,0,3.48.72c2.65,0,4.47-1.31,4.47-3.59,0-3.79-4.87-3.11-4.87-4.54Zm8.61-6-3.11.67V51a3.19,3.19,0,0,0,3.3,3.27A4.88,4.88,0,0,0,48,53.83V51.25c-.4.16-2.41.75-2.41-1.13V45.6H48V42.89H45.61ZM52,43.83l-.2-.94H49V54h3.18V46.48a2.26,2.26,0,0,1,2.42-.67V42.89a2.15,2.15,0,0,0-2.65.94Zm3.43-.94H58.6V54H55.41V42.89Zm0-1,3.19-.69V38.65l-3.19.67v2.6Zm9.84.75a3.65,3.65,0,0,0-2.5,1l-.16-.79h-2.8V57.72L63,57v-3.6a3.59,3.59,0,0,0,2.25.8c2.28,0,4.36-1.83,4.36-5.87,0-3.69-2.12-5.7-4.34-5.7Zm-.77,8.77a1.91,1.91,0,0,1-1.5-.6V46.12a1.89,1.89,0,0,1,1.51-.62c1.16,0,2,1.29,2,3s-.79,3-2,3ZM79.62,48.5c0-3.26-1.58-5.83-4.6-5.83s-4.86,2.57-4.86,5.8c0,3.84,2.16,5.77,5.27,5.77A7,7,0,0,0,79,53.41V50.87a6.74,6.74,0,0,1-3.11.7c-1.24,0-2.33-.44-2.47-1.94h6.22c0-.16,0-.82,0-1.13Zm-6.29-1.21c0-1.44.88-2,1.68-2s1.6.6,1.6,2Z" transform="translate(-7.71 0.82)" style="fill:#a855f7"/></svg>